<?xml version="1.0" encoding="utf-8" standalone="no"?>
<!DOCTYPE svg PUBLIC "-//W3C//DTD SVG 1.1//EN"
  "http://www.w3.org/Graphics/SVG/1.1/DTD/svg11.dtd">
<svg xmlns:xlink="http://www.w3.org/1999/xlink" width="479.418997pt" height="285.47225pt" viewBox="0 0 479.418997 285.47225" xmlns="http://www.w3.org/2000/svg" version="1.1">
 <metadata>
  <rdf:RDF xmlns:dc="http://purl.org/dc/elements/1.1/" xmlns:cc="http://creativecommons.org/ns#" xmlns:rdf="http://www.w3.org/1999/02/22-rdf-syntax-ns#">
   <cc:Work>
    <dc:type rdf:resource="http://purl.org/dc/dcmitype/StillImage"/>
    <dc:date>2026-06-19T17:07:12.425833</dc:date>
    <dc:format>image/svg+xml</dc:format>
    <dc:creator>
     <cc:Agent>
      <dc:title>Matplotlib v3.10.1, https://matplotlib.org/</dc:title>
     </cc:Agent>
    </dc:creator>
   </cc:Work>
  </rdf:RDF>
 </metadata>
 <defs>
  <style type="text/css">*{stroke-linejoin: round; stroke-linecap: butt}</style>
 </defs>
 <g id="figure_1">
  <g id="patch_1">
   <path d="M 0 285.47225 
L 479.418997 285.47225 
L 479.418997 0 
L 0 0 
z
" style="fill: #ffffff"/>
  </g>
  <g id="axes_1">
   <g id="patch_2">
    <path d="M 32.72875 251.136 
L 423.32875 251.136 
L 423.32875 7.2 
L 32.72875 7.2 
z
" style="fill: #ffffff"/>
   </g>
   <g id="patch_3">
    <path d="M 239.848261 251.136 
L 271.788004 251.136 
L 271.788004 7.2 
L 239.848261 7.2 
z
" clip-path="url(#p3224179685)" style="fill: #0f4d92; opacity: 0.07"/>
   </g>
   <g id="matplotlib.axis_1">
    <g id="xtick_1">
     <g id="line2d_1">
      <defs>
       <path id="m54e19e4bad" d="M 0 0 
L 0 3.5 
" style="stroke: #000000; stroke-width: 0.9"/>
      </defs>
      <g>
       <use xlink:href="#m54e19e4bad" x="32.72875" y="251.136" style="stroke: #000000; stroke-width: 0.9"/>
      </g>
     </g>
     <g id="text_1">
      <text style="font-size: 8px; font-family: 'Arial', 'DejaVu Sans', 'Liberation Sans', sans-serif; text-anchor: middle" x="32.72875" y="263.86225" transform="rotate(-0 32.72875 263.86225)">1</text>
     </g>
    </g>
    <g id="xtick_2">
     <g id="line2d_2">
      <g>
       <use xlink:href="#m54e19e4bad" x="84.073964" y="251.136" style="stroke: #000000; stroke-width: 0.9"/>
      </g>
     </g>
     <g id="text_2">
      <text style="font-size: 8px; font-family: 'Arial', 'DejaVu Sans', 'Liberation Sans', sans-serif; text-anchor: middle" x="84.073964" y="263.86225" transform="rotate(-0 84.073964 263.86225)">2</text>
     </g>
    </g>
    <g id="xtick_3">
     <g id="line2d_3">
      <g>
       <use xlink:href="#m54e19e4bad" x="151.948644" y="251.136" style="stroke: #000000; stroke-width: 0.9"/>
      </g>
     </g>
     <g id="text_3">
      <text style="font-size: 8px; font-family: 'Arial', 'DejaVu Sans', 'Liberation Sans', sans-serif; text-anchor: middle" x="151.948644" y="263.86225" transform="rotate(-0 151.948644 263.86225)">5</text>
     </g>
    </g>
    <g id="xtick_4">
     <g id="line2d_4">
      <g>
       <use xlink:href="#m54e19e4bad" x="203.293858" y="251.136" style="stroke: #000000; stroke-width: 0.9"/>
      </g>
     </g>
     <g id="text_4">
      <text style="font-size: 8px; font-family: 'Arial', 'DejaVu Sans', 'Liberation Sans', sans-serif; text-anchor: middle" x="203.293858" y="263.86225" transform="rotate(-0 203.293858 263.86225)">10</text>
     </g>
    </g>
    <g id="xtick_5">
     <g id="line2d_5">
      <g>
       <use xlink:href="#m54e19e4bad" x="254.639071" y="251.136" style="stroke: #000000; stroke-width: 0.9"/>
      </g>
     </g>
     <g id="text_5">
      <text style="font-size: 8px; font-family: 'Arial', 'DejaVu Sans', 'Liberation Sans', sans-serif; text-anchor: middle" x="254.639071" y="263.86225" transform="rotate(-0 254.639071 263.86225)">20</text>
     </g>
    </g>
    <g id="xtick_6">
     <g id="line2d_6">
      <g>
       <use xlink:href="#m54e19e4bad" x="284.674096" y="251.136" style="stroke: #000000; stroke-width: 0.9"/>
      </g>
     </g>
     <g id="text_6">
      <text style="font-size: 8px; font-family: 'Arial', 'DejaVu Sans', 'Liberation Sans', sans-serif; text-anchor: middle" x="284.674096" y="263.86225" transform="rotate(-0 284.674096 263.86225)">30</text>
     </g>
    </g>
    <g id="xtick_7">
     <g id="line2d_7">
      <g>
       <use xlink:href="#m54e19e4bad" x="336.019309" y="251.136" style="stroke: #000000; stroke-width: 0.9"/>
      </g>
     </g>
     <g id="text_7">
      <text style="font-size: 8px; font-family: 'Arial', 'DejaVu Sans', 'Liberation Sans', sans-serif; text-anchor: middle" x="336.019309" y="263.86225" transform="rotate(-0 336.019309 263.86225)">60</text>
     </g>
    </g>
    <g id="xtick_8">
     <g id="line2d_8">
      <g>
       <use xlink:href="#m54e19e4bad" x="387.364523" y="251.136" style="stroke: #000000; stroke-width: 0.9"/>
      </g>
     </g>
     <g id="text_8">
      <text style="font-size: 8px; font-family: 'Arial', 'DejaVu Sans', 'Liberation Sans', sans-serif; text-anchor: middle" x="387.364523" y="263.86225" transform="rotate(-0 387.364523 263.86225)">120</text>
     </g>
    </g>
    <g id="xtick_9">
     <g id="line2d_9">
      <g>
       <use xlink:href="#m54e19e4bad" x="417.399548" y="251.136" style="stroke: #000000; stroke-width: 0.9"/>
      </g>
     </g>
     <g id="text_9">
      <text style="font-size: 8px; font-family: 'Arial', 'DejaVu Sans', 'Liberation Sans', sans-serif; text-anchor: middle" x="417.399548" y="263.86225" transform="rotate(-0 417.399548 263.86225)">180</text>
     </g>
    </g>
    <g id="text_10">
     <!-- Forecast horizon $h$ (s) -->
     <g transform="translate(183.88375 276.29225)">
      <text>
       <tspan x="0" y="-0.15625" style="font-size: 9px; font-family: 'Arial'">F</tspan>
       <tspan x="5.497559" y="-0.15625" style="font-size: 9px; font-family: 'Arial'">o</tspan>
       <tspan x="10.50293" y="-0.15625" style="font-size: 9px; font-family: 'Arial'">r</tspan>
       <tspan x="13.5" y="-0.15625" style="font-size: 9px; font-family: 'Arial'">e</tspan>
       <tspan x="18.505371" y="-0.15625" style="font-size: 9px; font-family: 'Arial'">c</tspan>
       <tspan x="23.005371" y="-0.15625" style="font-size: 9px; font-family: 'Arial'">a</tspan>
       <tspan x="28.010742" y="-0.15625" style="font-size: 9px; font-family: 'Arial'">s</tspan>
       <tspan x="32.510742" y="-0.15625" style="font-size: 9px; font-family: 'Arial'">t</tspan>
       <tspan x="35.01123" y="-0.15625" style="font-size: 9px; font-family: 'Arial'"> </tspan>
       <tspan x="37.511719" y="-0.15625" style="font-size: 9px; font-family: 'Arial'">h</tspan>
       <tspan x="42.51709" y="-0.15625" style="font-size: 9px; font-family: 'Arial'">o</tspan>
       <tspan x="47.522461" y="-0.15625" style="font-size: 9px; font-family: 'Arial'">r</tspan>
       <tspan x="50.519531" y="-0.15625" style="font-size: 9px; font-family: 'Arial'">i</tspan>
       <tspan x="52.519043" y="-0.15625" style="font-size: 9px; font-family: 'Arial'">z</tspan>
       <tspan x="57.019043" y="-0.15625" style="font-size: 9px; font-family: 'Arial'">o</tspan>
       <tspan x="62.024414" y="-0.15625" style="font-size: 9px; font-family: 'Arial'">n</tspan>
       <tspan x="67.029785" y="-0.15625" style="font-size: 9px; font-family: 'Arial'"> </tspan>
       <tspan x="75.234375" y="-0.15625" style="font-size: 9px; font-family: 'Arial'"> </tspan>
       <tspan x="77.734863" y="-0.15625" style="font-size: 9px; font-family: 'Arial'">(</tspan>
       <tspan x="80.731934" y="-0.15625" style="font-size: 9px; font-family: 'Arial'">s</tspan>
       <tspan x="85.231934" y="-0.15625" style="font-size: 9px; font-family: 'Arial'">)</tspan>
       <tspan x="69.530273" y="-0.15625" style="font-style: oblique; font-size: 9px; font-family: 'DejaVu Sans'">h</tspan>
      </text>
     </g>
    </g>
   </g>
   <g id="matplotlib.axis_2">
    <g id="ytick_1">
     <g id="line2d_10">
      <path d="M 32.72875 251.136 
L 423.32875 251.136 
" clip-path="url(#p3224179685)" style="fill: none; stroke: #e6e6e6; stroke-width: 0.5; stroke-linecap: square"/>
     </g>
     <g id="line2d_11">
      <defs>
       <path id="m33b1af5abf" d="M 0 0 
L -3.5 0 
" style="stroke: #000000; stroke-width: 0.9"/>
      </defs>
      <g>
       <use xlink:href="#m33b1af5abf" x="32.72875" y="251.136" style="stroke: #000000; stroke-width: 0.9"/>
      </g>
     </g>
     <g id="text_11">
      <text style="font-size: 8px; font-family: 'Arial', 'DejaVu Sans', 'Liberation Sans', sans-serif; text-anchor: end" x="25.72875" y="253.999125" transform="rotate(-0 25.72875 253.999125)">0</text>
     </g>
    </g>
    <g id="ytick_2">
     <g id="line2d_12">
      <path d="M 32.72875 217.256 
L 423.32875 217.256 
" clip-path="url(#p3224179685)" style="fill: none; stroke: #e6e6e6; stroke-width: 0.5; stroke-linecap: square"/>
     </g>
     <g id="line2d_13">
      <g>
       <use xlink:href="#m33b1af5abf" x="32.72875" y="217.256" style="stroke: #000000; stroke-width: 0.9"/>
      </g>
     </g>
     <g id="text_12">
      <text style="font-size: 8px; font-family: 'Arial', 'DejaVu Sans', 'Liberation Sans', sans-serif; text-anchor: end" x="25.72875" y="220.119125" transform="rotate(-0 25.72875 220.119125)">1</text>
     </g>
    </g>
    <g id="ytick_3">
     <g id="line2d_14">
      <path d="M 32.72875 183.376 
L 423.32875 183.376 
" clip-path="url(#p3224179685)" style="fill: none; stroke: #e6e6e6; stroke-width: 0.5; stroke-linecap: square"/>
     </g>
     <g id="line2d_15">
      <g>
       <use xlink:href="#m33b1af5abf" x="32.72875" y="183.376" style="stroke: #000000; stroke-width: 0.9"/>
      </g>
     </g>
     <g id="text_13">
      <text style="font-size: 8px; font-family: 'Arial', 'DejaVu Sans', 'Liberation Sans', sans-serif; text-anchor: end" x="25.72875" y="186.239125" transform="rotate(-0 25.72875 186.239125)">2</text>
     </g>
    </g>
    <g id="ytick_4">
     <g id="line2d_16">
      <path d="M 32.72875 149.496 
L 423.32875 149.496 
" clip-path="url(#p3224179685)" style="fill: none; stroke: #e6e6e6; stroke-width: 0.5; stroke-linecap: square"/>
     </g>
     <g id="line2d_17">
      <g>
       <use xlink:href="#m33b1af5abf" x="32.72875" y="149.496" style="stroke: #000000; stroke-width: 0.9"/>
      </g>
     </g>
     <g id="text_14">
      <text style="font-size: 8px; font-family: 'Arial', 'DejaVu Sans', 'Liberation Sans', sans-serif; text-anchor: end" x="25.72875" y="152.359125" transform="rotate(-0 25.72875 152.359125)">3</text>
     </g>
    </g>
    <g id="ytick_5">
     <g id="line2d_18">
      <path d="M 32.72875 115.616 
L 423.32875 115.616 
" clip-path="url(#p3224179685)" style="fill: none; stroke: #e6e6e6; stroke-width: 0.5; stroke-linecap: square"/>
     </g>
     <g id="line2d_19">
      <g>
       <use xlink:href="#m33b1af5abf" x="32.72875" y="115.616" style="stroke: #000000; stroke-width: 0.9"/>
      </g>
     </g>
     <g id="text_15">
      <text style="font-size: 8px; font-family: 'Arial', 'DejaVu Sans', 'Liberation Sans', sans-serif; text-anchor: end" x="25.72875" y="118.479125" transform="rotate(-0 25.72875 118.479125)">4</text>
     </g>
    </g>
    <g id="ytick_6">
     <g id="line2d_20">
      <path d="M 32.72875 81.736 
L 423.32875 81.736 
" clip-path="url(#p3224179685)" style="fill: none; stroke: #e6e6e6; stroke-width: 0.5; stroke-linecap: square"/>
     </g>
     <g id="line2d_21">
      <g>
       <use xlink:href="#m33b1af5abf" x="32.72875" y="81.736" style="stroke: #000000; stroke-width: 0.9"/>
      </g>
     </g>
     <g id="text_16">
      <text style="font-size: 8px; font-family: 'Arial', 'DejaVu Sans', 'Liberation Sans', sans-serif; text-anchor: end" x="25.72875" y="84.599125" transform="rotate(-0 25.72875 84.599125)">5</text>
     </g>
    </g>
    <g id="ytick_7">
     <g id="line2d_22">
      <path d="M 32.72875 47.856 
L 423.32875 47.856 
" clip-path="url(#p3224179685)" style="fill: none; stroke: #e6e6e6; stroke-width: 0.5; stroke-linecap: square"/>
     </g>
     <g id="line2d_23">
      <g>
       <use xlink:href="#m33b1af5abf" x="32.72875" y="47.856" style="stroke: #000000; stroke-width: 0.9"/>
      </g>
     </g>
     <g id="text_17">
      <text style="font-size: 8px; font-family: 'Arial', 'DejaVu Sans', 'Liberation Sans', sans-serif; text-anchor: end" x="25.72875" y="50.719125" transform="rotate(-0 25.72875 50.719125)">6</text>
     </g>
    </g>
    <g id="ytick_8">
     <g id="line2d_24">
      <path d="M 32.72875 13.976 
L 423.32875 13.976 
" clip-path="url(#p3224179685)" style="fill: none; stroke: #e6e6e6; stroke-width: 0.5; stroke-linecap: square"/>
     </g>
     <g id="line2d_25">
      <g>
       <use xlink:href="#m33b1af5abf" x="32.72875" y="13.976" style="stroke: #000000; stroke-width: 0.9"/>
      </g>
     </g>
     <g id="text_18">
      <text style="font-size: 8px; font-family: 'Arial', 'DejaVu Sans', 'Liberation Sans', sans-serif; text-anchor: end" x="25.72875" y="16.839125" transform="rotate(-0 25.72875 16.839125)">7</text>
     </g>
    </g>
    <g id="text_19">
     <!-- RMSE (mL kg$^{-1}$ min$^{-1}$) -->
     <g transform="translate(15.3 176.823) rotate(-90)">
      <text>
       <tspan x="0" y="-0.960938" style="font-size: 9px; font-family: 'Arial'">R</tspan>
       <tspan x="6.499512" y="-0.960938" style="font-size: 9px; font-family: 'Arial'">M</tspan>
       <tspan x="13.996582" y="-0.960938" style="font-size: 9px; font-family: 'Arial'">S</tspan>
       <tspan x="19.999512" y="-0.960938" style="font-size: 9px; font-family: 'Arial'">E</tspan>
       <tspan x="26.002441" y="-0.960938" style="font-size: 9px; font-family: 'Arial'"> </tspan>
       <tspan x="28.50293" y="-0.960938" style="font-size: 9px; font-family: 'Arial'">(</tspan>
       <tspan x="31.5" y="-0.960938" style="font-size: 9px; font-family: 'Arial'">m</tspan>
       <tspan x="38.99707" y="-0.960938" style="font-size: 9px; font-family: 'Arial'">L</tspan>
       <tspan x="44.002441" y="-0.960938" style="font-size: 9px; font-family: 'Arial'"> </tspan>
       <tspan x="46.50293" y="-0.960938" style="font-size: 9px; font-family: 'Arial'">k</tspan>
       <tspan x="51.00293" y="-0.960938" style="font-size: 9px; font-family: 'Arial'">g</tspan>
       <tspan x="65.62749" y="-0.960938" style="font-size: 9px; font-family: 'Arial'"> </tspan>
       <tspan x="68.127979" y="-0.960938" style="font-size: 9px; font-family: 'Arial'">m</tspan>
       <tspan x="75.625049" y="-0.960938" style="font-size: 9px; font-family: 'Arial'">i</tspan>
       <tspan x="77.624561" y="-0.960938" style="font-size: 9px; font-family: 'Arial'">n</tspan>
       <tspan x="92.249121" y="-0.960938" style="font-size: 9px; font-family: 'Arial'">)</tspan>
       <tspan x="56.094434" y="-4.40625" style="font-size: 6.3px; font-family: 'DejaVu Sans'">−</tspan>
       <tspan x="61.373145" y="-4.40625" style="font-size: 6.3px; font-family: 'DejaVu Sans'">1</tspan>
       <tspan x="82.716064" y="-4.40625" style="font-size: 6.3px; font-family: 'DejaVu Sans'">−</tspan>
       <tspan x="87.994775" y="-4.40625" style="font-size: 6.3px; font-family: 'DejaVu Sans'">1</tspan>
      </text>
     </g>
    </g>
   </g>
   <g id="FillBetweenPolyCollection_1">
    <defs>
     <path id="m261a6ea6d2" d="M 32.72875 -48.270353 
L 32.72875 -42.990313 
L 33.692837 -43.090568 
L 34.656924 -43.19194 
L 35.621012 -43.294437 
L 36.585099 -43.398068 
L 37.549186 -43.502842 
L 38.513273 -43.608767 
L 39.47736 -43.715851 
L 40.441448 -43.824102 
L 41.405535 -43.933529 
L 42.369622 -44.04414 
L 43.333709 -44.155942 
L 44.297797 -44.268943 
L 45.261884 -44.383151 
L 46.225971 -44.498573 
L 47.190058 -44.615216 
L 48.154145 -44.733088 
L 49.118233 -44.852194 
L 50.08232 -44.972543 
L 51.046407 -45.094139 
L 52.010494 -45.21699 
L 52.974581 -45.341102 
L 53.938669 -45.466479 
L 54.902756 -45.593128 
L 55.866843 -45.721053 
L 56.83093 -45.850259 
L 57.795018 -45.980752 
L 58.759105 -46.112534 
L 59.723192 -46.245609 
L 60.687279 -46.379982 
L 61.651366 -46.515654 
L 62.615454 -46.65263 
L 63.579541 -46.790909 
L 64.543628 -46.930496 
L 65.507715 -47.071389 
L 66.471802 -47.213591 
L 67.43589 -47.357101 
L 68.399977 -47.501919 
L 69.364064 -47.648044 
L 70.328151 -47.795474 
L 71.292238 -47.944207 
L 72.256326 -48.09424 
L 73.220413 -48.24557 
L 74.1845 -48.398191 
L 75.148587 -48.5521 
L 76.112675 -48.707289 
L 77.076762 -48.863752 
L 78.040849 -49.021482 
L 79.004936 -49.18047 
L 79.969023 -49.340706 
L 80.933111 -49.502179 
L 81.897198 -49.664879 
L 82.861285 -49.828793 
L 83.825372 -49.993906 
L 84.789459 -50.16024 
L 85.753547 -50.327876 
L 86.717634 -50.496822 
L 87.681721 -50.66708 
L 88.645808 -50.838651 
L 89.609896 -51.011538 
L 90.573983 -51.185743 
L 91.53807 -51.361268 
L 92.502157 -51.538115 
L 93.466244 -51.716288 
L 94.430332 -51.895787 
L 95.394419 -52.076615 
L 96.358506 -52.258775 
L 97.322593 -52.442269 
L 98.28668 -52.6271 
L 99.250768 -52.81327 
L 100.214855 -53.000784 
L 101.178942 -53.189643 
L 102.143029 -53.379852 
L 103.107116 -53.571415 
L 104.071204 -53.764335 
L 105.035291 -53.958616 
L 105.999378 -54.154265 
L 106.963465 -54.351285 
L 107.927553 -54.549683 
L 108.89164 -54.749465 
L 109.855727 -54.950638 
L 110.819814 -55.153208 
L 111.783901 -55.357185 
L 112.747989 -55.562577 
L 113.712076 -55.769393 
L 114.676163 -55.977702 
L 115.64025 -56.187764 
L 116.604337 -56.399613 
L 117.568425 -56.613261 
L 118.532512 -56.828713 
L 119.496599 -57.045981 
L 120.460686 -57.265071 
L 121.424774 -57.485994 
L 122.388861 -57.708759 
L 123.352948 -57.933374 
L 124.317035 -58.159851 
L 125.281122 -58.388199 
L 126.24521 -58.618428 
L 127.209297 -58.850549 
L 128.173384 -59.084573 
L 129.137471 -59.320513 
L 130.101558 -59.558379 
L 131.065646 -59.798184 
L 132.029733 -60.039942 
L 132.99382 -60.283665 
L 133.957907 -60.529369 
L 134.921994 -60.777068 
L 135.886082 -61.026778 
L 136.850169 -61.278516 
L 137.814256 -61.532298 
L 138.778343 -61.788143 
L 139.742431 -62.046071 
L 140.706518 -62.306101 
L 141.670605 -62.568256 
L 142.634692 -62.832558 
L 143.598779 -63.09903 
L 144.562867 -63.367699 
L 145.526954 -63.63859 
L 146.491041 -63.911734 
L 147.455128 -64.18716 
L 148.419215 -64.464899 
L 149.383303 -64.744986 
L 150.34739 -65.027456 
L 151.311477 -65.312349 
L 152.275564 -65.599695 
L 153.239652 -65.889421 
L 154.203739 -66.181509 
L 155.167826 -66.475972 
L 156.131913 -66.772823 
L 157.096 -67.072076 
L 158.060088 -67.373746 
L 159.024175 -67.677848 
L 159.988262 -67.984397 
L 160.952349 -68.29341 
L 161.916436 -68.604904 
L 162.880524 -68.918897 
L 163.844611 -69.235409 
L 164.808698 -69.554459 
L 165.772785 -69.876068 
L 166.736872 -70.200259 
L 167.70096 -70.527056 
L 168.665047 -70.856483 
L 169.629134 -71.188566 
L 170.593221 -71.523334 
L 171.557309 -71.860816 
L 172.521396 -72.201043 
L 173.485483 -72.544049 
L 174.44957 -72.889869 
L 175.413657 -73.238539 
L 176.377745 -73.5901 
L 177.341832 -73.944594 
L 178.305919 -74.302065 
L 179.270006 -74.66256 
L 180.234093 -75.026131 
L 181.198181 -75.39283 
L 182.162268 -75.762714 
L 183.126355 -76.135843 
L 184.090442 -76.512282 
L 185.05453 -76.892097 
L 186.018617 -77.275362 
L 186.982704 -77.662175 
L 187.946791 -78.053118 
L 188.910878 -78.448144 
L 189.874966 -78.846863 
L 190.839053 -79.248854 
L 191.80314 -79.653659 
L 192.767227 -80.060785 
L 193.731314 -80.469697 
L 194.695402 -80.879822 
L 195.659489 -81.290542 
L 196.623576 -81.701193 
L 197.587663 -82.111063 
L 198.55175 -82.519391 
L 199.515838 -82.92536 
L 200.479925 -83.328099 
L 201.444012 -83.726678 
L 202.408099 -84.120103 
L 203.372187 -84.507345 
L 204.336274 -84.892175 
L 205.300361 -85.277847 
L 206.264448 -85.664336 
L 207.228535 -86.051622 
L 208.192623 -86.439685 
L 209.15671 -86.828507 
L 210.120797 -87.218075 
L 211.084884 -87.608377 
L 212.048971 -87.999403 
L 213.013059 -88.391149 
L 213.977146 -88.783611 
L 214.941233 -89.176792 
L 215.90532 -89.570697 
L 216.869407 -89.965337 
L 217.833495 -90.360727 
L 218.797582 -90.756888 
L 219.761669 -91.153845 
L 220.725756 -91.551631 
L 221.689844 -91.950284 
L 222.653931 -92.34985 
L 223.618018 -92.750381 
L 224.582105 -93.151938 
L 225.546192 -93.55459 
L 226.51028 -93.958416 
L 227.474367 -94.363504 
L 228.438454 -94.769952 
L 229.402541 -95.177868 
L 230.366628 -95.587374 
L 231.330716 -95.998603 
L 232.294803 -96.411701 
L 233.25889 -96.826827 
L 234.222977 -97.242906 
L 235.187065 -97.6584 
L 236.151152 -98.073377 
L 237.115239 -98.487927 
L 238.079326 -98.902155 
L 239.043413 -99.316178 
L 240.007501 -99.73013 
L 240.971588 -100.144163 
L 241.935675 -100.558445 
L 242.899762 -100.973163 
L 243.863849 -101.388525 
L 244.827937 -101.804761 
L 245.792024 -102.222121 
L 246.756111 -102.64088 
L 247.720198 -103.061341 
L 248.684285 -103.483831 
L 249.648373 -103.908705 
L 250.61246 -104.336352 
L 251.576547 -104.767188 
L 252.540634 -105.201666 
L 253.504722 -105.640275 
L 254.468809 -106.083538 
L 255.432896 -106.531192 
L 256.396983 -106.981915 
L 257.36107 -107.435668 
L 258.325158 -107.892447 
L 259.289245 -108.352246 
L 260.253332 -108.815061 
L 261.217419 -109.280888 
L 262.181506 -109.74972 
L 263.145594 -110.221556 
L 264.109681 -110.69639 
L 265.073768 -111.174219 
L 266.037855 -111.65504 
L 267.001943 -112.138851 
L 267.96603 -112.625649 
L 268.930117 -113.115435 
L 269.894204 -113.608207 
L 270.858291 -114.103966 
L 271.822379 -114.602713 
L 272.786466 -115.104453 
L 273.750553 -115.609188 
L 274.71464 -116.116926 
L 275.678727 -116.627673 
L 276.642815 -117.141437 
L 277.606902 -117.658232 
L 278.570989 -118.178068 
L 279.535076 -118.700963 
L 280.499163 -119.226933 
L 281.463251 -119.756 
L 282.427338 -120.288187 
L 283.391425 -120.823522 
L 284.355512 -121.362033 
L 285.3196 -121.90363 
L 286.283687 -122.447942 
L 287.247774 -122.994978 
L 288.211861 -123.544782 
L 289.175948 -124.097405 
L 290.140036 -124.652902 
L 291.104123 -125.211336 
L 292.06821 -125.772778 
L 293.032297 -126.337304 
L 293.996384 -126.905001 
L 294.960472 -127.475963 
L 295.924559 -128.050292 
L 296.888646 -128.628102 
L 297.852733 -129.209517 
L 298.816821 -129.79467 
L 299.780908 -130.383708 
L 300.744995 -130.97679 
L 301.709082 -131.574086 
L 302.673169 -132.175784 
L 303.637257 -132.782082 
L 304.601344 -133.393199 
L 305.565431 -134.009365 
L 306.529518 -134.630831 
L 307.493605 -135.257867 
L 308.457693 -135.890761 
L 309.42178 -136.529822 
L 310.385867 -137.175381 
L 311.349954 -137.827792 
L 312.314041 -138.487435 
L 313.278129 -139.154713 
L 314.242216 -139.830059 
L 315.206303 -140.513919 
L 316.17039 -141.206411 
L 317.134478 -141.907279 
L 318.098565 -142.616221 
L 319.062652 -143.332902 
L 320.026739 -144.056959 
L 320.990826 -144.787991 
L 321.954914 -145.525564 
L 322.919001 -146.269205 
L 323.883088 -147.018399 
L 324.847175 -147.772593 
L 325.811262 -148.531186 
L 326.77535 -149.293532 
L 327.739437 -150.058934 
L 328.703524 -150.826646 
L 329.667611 -151.595864 
L 330.631699 -152.365728 
L 331.595786 -153.135319 
L 332.559873 -153.903651 
L 333.52396 -154.669674 
L 334.488047 -155.432266 
L 335.452135 -156.190232 
L 336.416222 -156.943578 
L 337.380309 -157.702547 
L 338.344396 -158.469431 
L 339.308483 -159.243948 
L 340.272571 -160.02579 
L 341.236658 -160.814618 
L 342.200745 -161.610066 
L 343.164832 -162.411734 
L 344.128919 -163.21919 
L 345.093007 -164.031964 
L 346.057094 -164.849552 
L 347.021181 -165.671409 
L 347.985268 -166.49695 
L 348.949356 -167.325545 
L 349.913443 -168.156519 
L 350.87753 -168.989151 
L 351.841617 -169.822665 
L 352.805704 -170.656238 
L 353.769792 -171.488985 
L 354.733879 -172.319967 
L 355.697966 -173.148182 
L 356.662053 -173.972562 
L 357.62614 -174.791974 
L 358.590228 -175.605211 
L 359.554315 -176.410992 
L 360.518402 -177.20796 
L 361.482489 -177.994672 
L 362.446577 -178.7696 
L 363.410664 -179.531128 
L 364.374751 -180.277541 
L 365.338838 -181.007028 
L 366.302925 -181.718031 
L 367.267013 -182.416594 
L 368.2311 -183.105715 
L 369.195187 -183.785668 
L 370.159274 -184.45678 
L 371.123361 -185.119428 
L 372.087449 -185.774046 
L 373.051536 -186.421128 
L 374.015623 -187.061233 
L 374.97971 -187.694985 
L 375.943797 -188.323083 
L 376.907885 -188.946299 
L 377.871972 -189.565488 
L 378.836059 -190.18159 
L 379.800146 -190.795637 
L 380.764234 -191.408756 
L 381.728321 -192.022176 
L 382.692408 -192.637233 
L 383.656495 -193.255378 
L 384.620582 -193.878183 
L 385.58467 -194.507345 
L 386.548757 -195.144696 
L 387.512844 -195.792132 
L 388.476931 -196.447031 
L 389.441018 -197.107135 
L 390.405106 -197.772301 
L 391.369193 -198.442371 
L 392.33328 -199.117179 
L 393.297367 -199.79654 
L 394.261455 -200.480259 
L 395.225542 -201.168122 
L 396.189629 -201.859903 
L 397.153716 -202.555356 
L 398.117803 -203.254221 
L 399.081891 -203.956217 
L 400.045978 -204.661045 
L 401.010065 -205.368385 
L 401.974152 -206.077897 
L 402.938239 -206.789218 
L 403.902327 -207.501963 
L 404.866414 -208.215721 
L 405.830501 -208.930057 
L 406.794588 -209.644509 
L 407.758675 -210.358587 
L 408.722763 -211.071771 
L 409.68685 -211.783511 
L 410.650937 -212.493224 
L 411.615024 -213.200297 
L 412.579112 -213.904076 
L 413.543199 -214.603876 
L 414.507286 -215.298969 
L 415.471373 -215.98859 
L 416.43546 -216.671929 
L 417.399548 -217.348135 
L 417.399548 -271.504571 
L 417.399548 -271.504571 
L 416.43546 -270.553572 
L 415.471373 -269.600941 
L 414.507286 -268.647386 
L 413.543199 -267.693578 
L 412.579112 -266.740147 
L 411.615024 -265.787691 
L 410.650937 -264.836771 
L 409.68685 -263.887914 
L 408.722763 -262.94162 
L 407.758675 -261.998354 
L 406.794588 -261.058556 
L 405.830501 -260.122638 
L 404.866414 -259.190986 
L 403.902327 -258.263961 
L 402.938239 -257.341899 
L 401.974152 -256.425116 
L 401.010065 -255.513906 
L 400.045978 -254.608541 
L 399.081891 -253.709276 
L 398.117803 -252.816346 
L 397.153716 -251.929967 
L 396.189629 -251.050342 
L 395.225542 -250.177654 
L 394.261455 -249.312073 
L 393.297367 -248.453756 
L 392.33328 -247.602842 
L 391.369193 -246.759461 
L 390.405106 -245.923729 
L 389.441018 -245.09575 
L 388.476931 -244.275618 
L 387.512844 -243.463415 
L 386.548757 -242.663821 
L 385.58467 -241.883027 
L 384.620582 -241.117928 
L 383.656495 -240.365478 
L 382.692408 -239.622848 
L 381.728321 -238.887413 
L 380.764234 -238.156742 
L 379.800146 -237.428587 
L 378.836059 -236.700873 
L 377.871972 -235.971692 
L 376.907885 -235.239288 
L 375.943797 -234.502054 
L 374.97971 -233.758521 
L 374.015623 -233.007351 
L 373.051536 -232.24733 
L 372.087449 -231.477361 
L 371.123361 -230.696456 
L 370.159274 -229.903731 
L 369.195187 -229.0984 
L 368.2311 -228.279768 
L 367.267013 -227.447228 
L 366.302925 -226.600253 
L 365.338838 -225.735081 
L 364.374751 -224.844473 
L 363.410664 -223.93043 
L 362.446577 -222.995251 
L 361.482489 -222.041118 
L 360.518402 -221.070089 
L 359.554315 -220.084116 
L 358.590228 -219.085038 
L 357.62614 -218.074596 
L 356.662053 -217.054431 
L 355.697966 -216.026093 
L 354.733879 -214.991041 
L 353.769792 -213.950652 
L 352.805704 -212.906221 
L 351.841617 -211.858966 
L 350.87753 -210.810032 
L 349.913443 -209.760494 
L 348.949356 -208.711363 
L 347.985268 -207.663583 
L 347.021181 -206.618041 
L 346.057094 -205.575566 
L 345.093007 -204.536931 
L 344.128919 -203.502859 
L 343.164832 -202.474022 
L 342.200745 -201.451048 
L 341.236658 -200.434518 
L 340.272571 -199.424972 
L 339.308483 -198.422908 
L 338.344396 -197.428788 
L 337.380309 -196.443038 
L 336.416222 -195.466047 
L 335.452135 -194.494329 
L 334.488047 -193.512422 
L 333.52396 -192.520311 
L 332.559873 -191.519798 
L 331.595786 -190.51258 
L 330.631699 -189.500249 
L 329.667611 -188.4843 
L 328.703524 -187.466135 
L 327.739437 -186.447069 
L 326.77535 -185.428331 
L 325.811262 -184.411071 
L 324.847175 -183.396363 
L 323.883088 -182.385207 
L 322.919001 -181.378538 
L 321.954914 -180.377221 
L 320.990826 -179.382062 
L 320.026739 -178.393808 
L 319.062652 -177.413151 
L 318.098565 -176.440726 
L 317.134478 -175.477123 
L 316.17039 -174.522881 
L 315.206303 -173.578494 
L 314.242216 -172.643678 
L 313.278129 -171.714072 
L 312.314041 -170.789057 
L 311.349954 -169.86883 
L 310.385867 -168.953578 
L 309.42178 -168.043475 
L 308.457693 -167.138685 
L 307.493605 -166.23936 
L 306.529518 -165.345646 
L 305.565431 -164.457675 
L 304.601344 -163.575573 
L 303.637257 -162.699456 
L 302.673169 -161.829433 
L 301.709082 -160.965604 
L 300.744995 -160.108061 
L 299.780908 -159.25689 
L 298.816821 -158.412169 
L 297.852733 -157.573971 
L 296.888646 -156.742359 
L 295.924559 -155.917394 
L 294.960472 -155.099129 
L 293.996384 -154.287612 
L 293.032297 -153.482886 
L 292.06821 -152.684987 
L 291.104123 -151.893949 
L 290.140036 -151.1098 
L 289.175948 -150.332562 
L 288.211861 -149.562256 
L 287.247774 -148.798897 
L 286.283687 -148.042495 
L 285.3196 -147.29306 
L 284.355512 -146.550369 
L 283.391425 -145.811556 
L 282.427338 -145.076044 
L 281.463251 -144.344188 
L 280.499163 -143.616319 
L 279.535076 -142.892746 
L 278.570989 -142.173754 
L 277.606902 -141.459611 
L 276.642815 -140.750561 
L 275.678727 -140.046835 
L 274.71464 -139.348641 
L 273.750553 -138.656173 
L 272.786466 -137.969609 
L 271.822379 -137.289111 
L 270.858291 -136.614827 
L 269.894204 -135.946891 
L 268.930117 -135.285425 
L 267.96603 -134.630538 
L 267.001943 -133.982328 
L 266.037855 -133.340881 
L 265.073768 -132.706273 
L 264.109681 -132.078571 
L 263.145594 -131.457831 
L 262.181506 -130.844102 
L 261.217419 -130.237423 
L 260.253332 -129.637827 
L 259.289245 -129.045337 
L 258.325158 -128.459972 
L 257.36107 -127.881742 
L 256.396983 -127.310653 
L 255.432896 -126.746702 
L 254.468809 -126.189911 
L 253.504722 -125.64122 
L 252.540634 -125.100544 
L 251.576547 -124.567161 
L 250.61246 -124.040399 
L 249.648373 -123.519631 
L 248.684285 -123.004273 
L 247.720198 -122.493781 
L 246.756111 -121.98765 
L 245.792024 -121.485412 
L 244.827937 -120.986634 
L 243.863849 -120.490915 
L 242.899762 -119.997885 
L 241.935675 -119.507202 
L 240.971588 -119.018555 
L 240.007501 -118.531656 
L 239.043413 -118.046243 
L 238.079326 -117.562076 
L 237.115239 -117.07894 
L 236.151152 -116.596636 
L 235.187065 -116.114988 
L 234.222977 -115.633838 
L 233.25889 -115.153055 
L 232.294803 -114.675095 
L 231.330716 -114.201585 
L 230.366628 -113.732134 
L 229.402541 -113.26638 
L 228.438454 -112.803985 
L 227.474367 -112.344638 
L 226.51028 -111.888051 
L 225.546192 -111.43396 
L 224.582105 -110.982121 
L 223.618018 -110.532309 
L 222.653931 -110.084321 
L 221.689844 -109.637969 
L 220.725756 -109.193082 
L 219.761669 -108.749506 
L 218.797582 -108.307102 
L 217.833495 -107.865745 
L 216.869407 -107.425321 
L 215.90532 -106.985732 
L 214.941233 -106.546888 
L 213.977146 -106.108712 
L 213.013059 -105.671137 
L 212.048971 -105.234106 
L 211.084884 -104.797569 
L 210.120797 -104.361486 
L 209.15671 -103.925824 
L 208.192623 -103.490558 
L 207.228535 -103.05567 
L 206.264448 -102.621146 
L 205.300361 -102.186981 
L 204.336274 -101.753172 
L 203.372187 -101.319724 
L 202.408099 -100.883776 
L 201.444012 -100.44196 
L 200.479925 -99.995086 
L 199.515838 -99.543939 
L 198.55175 -99.089261 
L 197.587663 -98.631748 
L 196.623576 -98.172054 
L 195.659489 -97.710797 
L 194.695402 -97.248554 
L 193.731314 -96.785867 
L 192.767227 -96.323245 
L 191.80314 -95.861164 
L 190.839053 -95.400069 
L 189.874966 -94.940375 
L 188.910878 -94.482471 
L 187.946791 -94.026718 
L 186.982704 -93.573452 
L 186.018617 -93.122257 
L 185.05453 -92.671722 
L 184.090442 -92.221959 
L 183.126355 -91.77313 
L 182.162268 -91.325391 
L 181.198181 -90.878889 
L 180.234093 -90.433764 
L 179.270006 -89.990147 
L 178.305919 -89.548164 
L 177.341832 -89.107935 
L 176.377745 -88.66957 
L 175.413657 -88.233176 
L 174.44957 -87.798853 
L 173.485483 -87.366696 
L 172.521396 -86.936793 
L 171.557309 -86.509228 
L 170.593221 -86.084079 
L 169.629134 -85.661421 
L 168.665047 -85.241323 
L 167.70096 -84.82385 
L 166.736872 -84.409062 
L 165.772785 -83.997015 
L 164.808698 -83.587762 
L 163.844611 -83.181353 
L 162.880524 -82.777832 
L 161.916436 -82.377241 
L 160.952349 -81.979619 
L 159.988262 -81.585001 
L 159.024175 -81.19342 
L 158.060088 -80.804905 
L 157.096 -80.419484 
L 156.131913 -80.037179 
L 155.167826 -79.658013 
L 154.203739 -79.282005 
L 153.239652 -78.909172 
L 152.275564 -78.539529 
L 151.311477 -78.172804 
L 150.34739 -77.808075 
L 149.383303 -77.44531 
L 148.419215 -77.084547 
L 147.455128 -76.725822 
L 146.491041 -76.369172 
L 145.526954 -76.014629 
L 144.562867 -75.662224 
L 143.598779 -75.311989 
L 142.634692 -74.963951 
L 141.670605 -74.618137 
L 140.706518 -74.274571 
L 139.742431 -73.933278 
L 138.778343 -73.594279 
L 137.814256 -73.257596 
L 136.850169 -72.923246 
L 135.886082 -72.591248 
L 134.921994 -72.261619 
L 133.957907 -71.934374 
L 132.99382 -71.609526 
L 132.029733 -71.287089 
L 131.065646 -70.967074 
L 130.101558 -70.649492 
L 129.137471 -70.334353 
L 128.173384 -70.021663 
L 127.209297 -69.711432 
L 126.24521 -69.403665 
L 125.281122 -69.098367 
L 124.317035 -68.795543 
L 123.352948 -68.495197 
L 122.388861 -68.197332 
L 121.424774 -67.901948 
L 120.460686 -67.609047 
L 119.496599 -67.31863 
L 118.532512 -67.030696 
L 117.568425 -66.745243 
L 116.604337 -66.46227 
L 115.64025 -66.181774 
L 114.676163 -65.903752 
L 113.712076 -65.628156 
L 112.747989 -65.35459 
L 111.783901 -65.082928 
L 110.819814 -64.813131 
L 109.855727 -64.545167 
L 108.89164 -64.279002 
L 107.927553 -64.014607 
L 106.963465 -63.751955 
L 105.999378 -63.491023 
L 105.035291 -63.231787 
L 104.071204 -62.974226 
L 103.107116 -62.718323 
L 102.143029 -62.46406 
L 101.178942 -62.211421 
L 100.214855 -61.960394 
L 99.250768 -61.710964 
L 98.28668 -61.463121 
L 97.322593 -61.216854 
L 96.358506 -60.972155 
L 95.394419 -60.729015 
L 94.430332 -60.487427 
L 93.466244 -60.247386 
L 92.502157 -60.008884 
L 91.53807 -59.771918 
L 90.573983 -59.536484 
L 89.609896 -59.302577 
L 88.645808 -59.070194 
L 87.681721 -58.839333 
L 86.717634 -58.609992 
L 85.753547 -58.382169 
L 84.789459 -58.155861 
L 83.825372 -57.931061 
L 82.861285 -57.707618 
L 81.897198 -57.485502 
L 80.933111 -57.264747 
L 79.969023 -57.045384 
L 79.004936 -56.827443 
L 78.040849 -56.610951 
L 77.076762 -56.395936 
L 76.112675 -56.182421 
L 75.148587 -55.970427 
L 74.1845 -55.759976 
L 73.220413 -55.551086 
L 72.256326 -55.343775 
L 71.292238 -55.138059 
L 70.328151 -54.933951 
L 69.364064 -54.731466 
L 68.399977 -54.530615 
L 67.43589 -54.331408 
L 66.471802 -54.133855 
L 65.507715 -53.937965 
L 64.543628 -53.743743 
L 63.579541 -53.551196 
L 62.615454 -53.36033 
L 61.651366 -53.171149 
L 60.687279 -52.983654 
L 59.723192 -52.79785 
L 58.759105 -52.613737 
L 57.795018 -52.431317 
L 56.83093 -52.250588 
L 55.866843 -52.071551 
L 54.902756 -51.894204 
L 53.938669 -51.718544 
L 52.974581 -51.54457 
L 52.010494 -51.372277 
L 51.046407 -51.201663 
L 50.08232 -51.032721 
L 49.118233 -50.865449 
L 48.154145 -50.699839 
L 47.190058 -50.535887 
L 46.225971 -50.373586 
L 45.261884 -50.212929 
L 44.297797 -50.05391 
L 43.333709 -49.89652 
L 42.369622 -49.740752 
L 41.405535 -49.586598 
L 40.441448 -49.43405 
L 39.47736 -49.283098 
L 38.513273 -49.133734 
L 37.549186 -48.985948 
L 36.585099 -48.839731 
L 35.621012 -48.695073 
L 34.656924 -48.551964 
L 33.692837 -48.410394 
L 32.72875 -48.270353 
z
"/>
    </defs>
    <g clip-path="url(#p3224179685)">
     <use xlink:href="#m261a6ea6d2" x="0" y="285.47225" style="fill: #111111; fill-opacity: 0.12"/>
    </g>
   </g>
   <g id="line2d_26">
    <path d="M 255.565765 215.562 
L 255.565765 168.755262 
" clip-path="url(#p3224179685)" style="fill: none; stroke-dasharray: 2.96,1.28; stroke-dashoffset: 0; stroke: #0f4d92; stroke-opacity: 0.8; stroke-width: 0.8"/>
   </g>
   <g id="line2d_27">
    <path d="M 258.419121 227.42 
L 258.419121 167.202683 
" clip-path="url(#p3224179685)" style="fill: none; stroke-dasharray: 2.96,1.28; stroke-dashoffset: 0; stroke: #e1812c; stroke-opacity: 0.8; stroke-width: 0.8"/>
   </g>
   <g id="line2d_28">
    <path d="M 273.697426 239.278 
L 273.697426 158.327708 
" clip-path="url(#p3224179685)" style="fill: none; stroke-dasharray: 2.96,1.28; stroke-dashoffset: 0; stroke: #767676; stroke-opacity: 0.8; stroke-width: 0.8"/>
   </g>
   <g id="patch_4">
    <path d="M 32.72875 251.136 
L 32.72875 7.2 
" style="fill: none; stroke: #000000; stroke-width: 0.9; stroke-linejoin: miter; stroke-linecap: square"/>
   </g>
   <g id="patch_5">
    <path d="M 32.72875 251.136 
L 423.32875 251.136 
" style="fill: none; stroke: #000000; stroke-width: 0.9; stroke-linejoin: miter; stroke-linecap: square"/>
   </g>
   <g id="text_20">
    <text style="font-size: 8px; font-family: 'Arial', 'DejaVu Sans', 'Liberation Sans', sans-serif; fill: #111111" transform="translate(285.210344 82.808125)">naive persistence</text>
    <!-- (copy VO$_2$ forward) -->
    <g style="fill: #111111" transform="translate(281.937219 91.406125)">
     <text>
      <tspan x="0" y="-0.171875" style="font-size: 8px; font-family: 'Arial'; fill: #111111">(</tspan>
      <tspan x="2.664062" y="-0.171875" style="font-size: 8px; font-family: 'Arial'; fill: #111111">c</tspan>
      <tspan x="6.664062" y="-0.171875" style="font-size: 8px; font-family: 'Arial'; fill: #111111">o</tspan>
      <tspan x="11.113281" y="-0.171875" style="font-size: 8px; font-family: 'Arial'; fill: #111111">p</tspan>
      <tspan x="15.5625" y="-0.171875" style="font-size: 8px; font-family: 'Arial'; fill: #111111">y</tspan>
      <tspan x="19.5625" y="-0.171875" style="font-size: 8px; font-family: 'Arial'; fill: #111111"> </tspan>
      <tspan x="21.785156" y="-0.171875" style="font-size: 8px; font-family: 'Arial'; fill: #111111">V</tspan>
      <tspan x="27.121094" y="-0.171875" style="font-size: 8px; font-family: 'Arial'; fill: #111111">O</tspan>
      <tspan x="37.201953" y="-0.171875" style="font-size: 8px; font-family: 'Arial'; fill: #111111"> </tspan>
      <tspan x="39.424609" y="-0.171875" style="font-size: 8px; font-family: 'Arial'; fill: #111111">f</tspan>
      <tspan x="41.647266" y="-0.171875" style="font-size: 8px; font-family: 'Arial'; fill: #111111">o</tspan>
      <tspan x="46.096484" y="-0.171875" style="font-size: 8px; font-family: 'Arial'; fill: #111111">r</tspan>
      <tspan x="48.760547" y="-0.171875" style="font-size: 8px; font-family: 'Arial'; fill: #111111">w</tspan>
      <tspan x="54.537891" y="-0.171875" style="font-size: 8px; font-family: 'Arial'; fill: #111111">a</tspan>
      <tspan x="58.987109" y="-0.171875" style="font-size: 8px; font-family: 'Arial'; fill: #111111">r</tspan>
      <tspan x="61.651172" y="-0.171875" style="font-size: 8px; font-family: 'Arial'; fill: #111111">d</tspan>
      <tspan x="66.100391" y="-0.171875" style="font-size: 8px; font-family: 'Arial'; fill: #111111">)</tspan>
      <tspan x="33.420313" y="1.140625" style="font-size: 5.6px; font-family: 'DejaVu Sans'; fill: #111111">2</tspan>
     </text>
    </g>
   </g>
   <g id="line2d_29">
    <path d="M 32.72875 168.755262 
L 423.32875 168.755262 
" clip-path="url(#p3224179685)" style="fill: none; stroke-dasharray: 5.18,2.24; stroke-dashoffset: 0; stroke: #0f4d92; stroke-width: 1.4"/>
   </g>
   <g id="text_21">
    <text style="font-size: 7.1px; font-family: 'Arial', 'DejaVu Sans', 'Liberation Sans', sans-serif; text-anchor: start; fill: #0f4d92" x="428.01595" y="173.837308" transform="rotate(-0 428.01595 173.837308)">TCN 2.43</text>
   </g>
   <g id="line2d_30">
    <path d="M 32.72875 167.202683 
L 423.32875 167.202683 
" clip-path="url(#p3224179685)" style="fill: none; stroke-dasharray: 5.18,2.24; stroke-dashoffset: 0; stroke: #e1812c; stroke-width: 1.4"/>
   </g>
   <g id="text_22">
    <text style="font-size: 7.1px; font-family: 'Arial', 'DejaVu Sans', 'Liberation Sans', sans-serif; text-anchor: start; fill: #e1812c" x="428.01595" y="169.038144" transform="rotate(-0 428.01595 169.038144)">XGBoost 2.48</text>
   </g>
   <g id="line2d_31">
    <path d="M 32.72875 158.327708 
L 423.32875 158.327708 
" clip-path="url(#p3224179685)" style="fill: none; stroke-dasharray: 5.18,2.24; stroke-dashoffset: 0; stroke: #767676; stroke-width: 1.4"/>
   </g>
   <g id="text_23">
    <text style="font-size: 7.1px; font-family: 'Arial', 'DejaVu Sans', 'Liberation Sans', sans-serif; text-anchor: start; fill: #767676" x="428.01595" y="156.83338" transform="rotate(-0 428.01595 156.83338)">Ridge 2.74</text>
   </g>
   <g id="text_24">
    <text style="font-size: 7.1px; font-family: 'Arial', 'DejaVu Sans', 'Liberation Sans', sans-serif; text-anchor: end; fill: #0f4d92" x="234.472551" y="217.397461" transform="rotate(-0 234.472551 217.397461)">TCN  20 s</text>
   </g>
   <g id="text_25">
    <text style="font-size: 7.1px; font-family: 'Arial', 'DejaVu Sans', 'Liberation Sans', sans-serif; text-anchor: end; fill: #e1812c" x="241.310931" y="229.255461" transform="rotate(-0 241.310931 229.255461)">XGBoost  21 s</text>
   </g>
   <g id="text_26">
    <text style="font-size: 7.1px; font-family: 'Arial', 'DejaVu Sans', 'Liberation Sans', sans-serif; text-anchor: end; fill: #767676" x="256.010159" y="241.082398" transform="rotate(-0 256.010159 241.082398)">Ridge  26 s</text>
   </g>
   <g id="text_27">
    <text style="font-style: italic; font-size: 7px; font-family: 'Arial', 'DejaVu Sans', 'Liberation Sans', sans-serif; text-anchor: start; fill: #33414b" x="57.653094" y="248.88165" transform="rotate(-0 57.653094 248.88165)">crossover horizon: pooled mean-curve crossing (point), 95% bootstrap CI (bar)</text>
   </g>
   <g id="line2d_32">
    <path d="M 32.72875 239.841917 
L 45.261884 238.17421 
L 56.83093 236.421826 
L 68.399977 234.455983 
L 80.933111 232.088787 
L 93.466244 229.490413 
L 105.035291 226.877048 
L 116.604337 224.041308 
L 126.24521 221.461204 
L 135.886082 218.663237 
L 145.526954 215.645641 
L 155.167826 212.405258 
L 163.844611 209.263869 
L 172.521396 205.903332 
L 182.162268 201.928197 
L 191.80314 197.714838 
L 205.300361 191.739836 
L 223.618018 183.830905 
L 234.222977 179.033878 
L 249.648373 171.758082 
L 256.396983 168.325966 
L 263.145594 164.632557 
L 269.894204 160.694701 
L 277.606902 155.913329 
L 285.3196 150.873905 
L 292.06821 146.243367 
L 298.816821 141.36883 
L 305.565431 136.23873 
L 312.314041 130.834004 
L 318.098565 125.943776 
L 324.847175 119.887772 
L 346.057094 100.259691 
L 361.482489 85.454355 
L 365.338838 82.101196 
L 370.159274 78.291995 
L 375.943797 74.059681 
L 388.476931 65.110925 
L 395.225542 59.799362 
L 402.938239 53.406692 
L 417.399548 41.045897 
L 417.399548 41.045897 
" clip-path="url(#p3224179685)" style="fill: none; stroke: #111111; stroke-width: 2; stroke-linecap: square"/>
   </g>
   <g id="line2d_33">
    <defs>
     <path id="maa8bef26fa" d="M 0 1.6 
C 0.424325 1.6 0.831328 1.431414 1.131371 1.131371 
C 1.431414 0.831328 1.6 0.424325 1.6 0 
C 1.6 -0.424325 1.431414 -0.831328 1.131371 -1.131371 
C 0.831328 -1.431414 0.424325 -1.6 0 -1.6 
C -0.424325 -1.6 -0.831328 -1.431414 -1.131371 -1.131371 
C -1.431414 -0.831328 -1.6 -0.424325 -1.6 0 
C -1.6 0.424325 -1.431414 0.831328 -1.131371 1.131371 
C -0.831328 1.431414 -0.424325 1.6 0 1.6 
z
" style="stroke: #111111"/>
    </defs>
    <g clip-path="url(#p3224179685)">
     <use xlink:href="#maa8bef26fa" x="32.72875" y="239.841917" style="fill: #111111; stroke: #111111"/>
     <use xlink:href="#maa8bef26fa" x="84.073964" y="231.45947" style="fill: #111111; stroke: #111111"/>
     <use xlink:href="#maa8bef26fa" x="114.108988" y="224.6741" style="fill: #111111; stroke: #111111"/>
     <use xlink:href="#maa8bef26fa" x="151.948644" y="213.513803" style="fill: #111111; stroke: #111111"/>
     <use xlink:href="#maa8bef26fa" x="186.764391" y="199.949529" style="fill: #111111; stroke: #111111"/>
     <use xlink:href="#maa8bef26fa" x="203.293858" y="192.59193" style="fill: #111111; stroke: #111111"/>
     <use xlink:href="#maa8bef26fa" x="233.328882" y="179.449756" style="fill: #111111; stroke: #111111"/>
     <use xlink:href="#maa8bef26fa" x="254.639071" y="169.247226" style="fill: #111111; stroke: #111111"/>
     <use xlink:href="#maa8bef26fa" x="284.674096" y="151.30432" style="fill: #111111; stroke: #111111"/>
     <use xlink:href="#maa8bef26fa" x="314.70912" y="128.844433" style="fill: #111111; stroke: #111111"/>
     <use xlink:href="#maa8bef26fa" x="336.019309" y="109.622287" style="fill: #111111; stroke: #111111"/>
    </g>
   </g>
   <g id="line2d_34">
    <path d="M 239.848261 215.562 
L 271.788004 215.562 
" clip-path="url(#p3224179685)" style="fill: none; stroke: #0f4d92; stroke-width: 1.8; stroke-linecap: round"/>
   </g>
   <g id="line2d_35">
    <path d="M 246.68664 227.42 
L 269.670776 227.42 
" clip-path="url(#p3224179685)" style="fill: none; stroke: #e1812c; stroke-width: 1.8; stroke-linecap: round"/>
   </g>
   <g id="line2d_36">
    <path d="M 261.385868 239.278 
L 287.006298 239.278 
" clip-path="url(#p3224179685)" style="fill: none; stroke: #767676; stroke-width: 1.8; stroke-linecap: round"/>
   </g>
   <g id="line2d_37">
    <defs>
     <path id="mcf9820a3cb" d="M 0 2.5 
C 0.663008 2.5 1.29895 2.236584 1.767767 1.767767 
C 2.236584 1.29895 2.5 0.663008 2.5 0 
C 2.5 -0.663008 2.236584 -1.29895 1.767767 -1.767767 
C 1.29895 -2.236584 0.663008 -2.5 0 -2.5 
C -0.663008 -2.5 -1.29895 -2.236584 -1.767767 -1.767767 
C -2.236584 -1.29895 -2.5 -0.663008 -2.5 0 
C -2.5 0.663008 -2.236584 1.29895 -1.767767 1.767767 
C -1.29895 2.236584 -0.663008 2.5 0 2.5 
z
" style="stroke: #0f4d92"/>
    </defs>
    <g clip-path="url(#p3224179685)">
     <use xlink:href="#mcf9820a3cb" x="255.565765" y="168.755262" style="fill: #0f4d92; stroke: #0f4d92"/>
    </g>
   </g>
   <g id="line2d_38">
    <defs>
     <path id="m46a71b5510" d="M 0 2.5 
C 0.663008 2.5 1.29895 2.236584 1.767767 1.767767 
C 2.236584 1.29895 2.5 0.663008 2.5 0 
C 2.5 -0.663008 2.236584 -1.29895 1.767767 -1.767767 
C 1.29895 -2.236584 0.663008 -2.5 0 -2.5 
C -0.663008 -2.5 -1.29895 -2.236584 -1.767767 -1.767767 
C -2.236584 -1.29895 -2.5 -0.663008 -2.5 0 
C -2.5 0.663008 -2.236584 1.29895 -1.767767 1.767767 
C -1.29895 2.236584 -0.663008 2.5 0 2.5 
z
" style="stroke: #e1812c"/>
    </defs>
    <g clip-path="url(#p3224179685)">
     <use xlink:href="#m46a71b5510" x="258.419121" y="167.202683" style="fill: #e1812c; stroke: #e1812c"/>
    </g>
   </g>
   <g id="line2d_39">
    <defs>
     <path id="mc18299280d" d="M 0 2.5 
C 0.663008 2.5 1.29895 2.236584 1.767767 1.767767 
C 2.236584 1.29895 2.5 0.663008 2.5 0 
C 2.5 -0.663008 2.236584 -1.29895 1.767767 -1.767767 
C 1.29895 -2.236584 0.663008 -2.5 0 -2.5 
C -0.663008 -2.5 -1.29895 -2.236584 -1.767767 -1.767767 
C -2.236584 -1.29895 -2.5 -0.663008 -2.5 0 
C -2.5 0.663008 -2.236584 1.29895 -1.767767 1.767767 
C -1.29895 2.236584 -0.663008 2.5 0 2.5 
z
" style="stroke: #767676"/>
    </defs>
    <g clip-path="url(#p3224179685)">
     <use xlink:href="#mc18299280d" x="273.697426" y="158.327708" style="fill: #767676; stroke: #767676"/>
    </g>
   </g>
   <g id="line2d_40">
    <g clip-path="url(#p3224179685)">
     <use xlink:href="#mcf9820a3cb" x="255.565765" y="215.562" style="fill: #0f4d92; stroke: #0f4d92"/>
    </g>
   </g>
   <g id="line2d_41">
    <g clip-path="url(#p3224179685)">
     <use xlink:href="#m46a71b5510" x="258.419121" y="227.42" style="fill: #e1812c; stroke: #e1812c"/>
    </g>
   </g>
   <g id="line2d_42">
    <g clip-path="url(#p3224179685)">
     <use xlink:href="#mc18299280d" x="273.697426" y="239.278" style="fill: #767676; stroke: #767676"/>
    </g>
   </g>
  </g>
 </g>
 <defs>
  <clipPath id="p3224179685">
   <rect x="32.72875" y="7.2" width="390.6" height="243.936"/>
  </clipPath>
 </defs>
</svg>
